<svg width="95" height="30" viewBox="0 0 95 30" fill="none" xmlns="http://www.w3.org/2000/svg">
<rect width="95" height="30" fill="#013E7F"/>
<path d="M10 8H16.8379L19.122 14.1156L21.4923 8H28.3303V21.3311H24.4229V11.9597L21.1907 21.3311H16.9672L13.7781 11.9597V21.3311H10V8Z" fill="#FFF100"/>
<path fill-rule="evenodd" clip-rule="evenodd" d="M71.252 10.6044C71.252 9.14771 72.369 8 73.7867 8H82.4649C83.8827 8 84.9997 9.14771 84.9997 10.6044V18.7267C84.9997 20.1834 83.7108 21.3311 82.2931 21.3311H74.0015C72.5838 21.3311 71.252 20.2276 71.252 18.7708V10.6044ZM80.4049 11.5759H75.9369C75.5932 11.5759 75.3354 11.8408 75.3354 12.1939V17.0938C75.3354 17.4469 75.5932 17.7118 75.9369 17.7118H80.4049C80.7486 17.7118 81.0064 17.4469 81.0064 17.0938V12.1939C81.0064 11.8408 80.7486 11.5759 80.4049 11.5759Z" fill="#FFF100"/>
<path d="M29.9961 8H41.6608V10.8251H34.3539V13.1647H41.6608V15.9457H34.3539V18.4177H41.6608V21.3311H29.9961V8Z" fill="#FFF100"/>
<path d="M42.9121 8H54.5768V10.8251H50.8595V21.3311H46.5013V10.8251H42.9121V8Z" fill="#FFF100"/>
<path fill-rule="evenodd" clip-rule="evenodd" d="M55.8428 21.2877V8.04462H66.9352C67.6632 8.04462 68.4341 8.39659 68.9481 9.10055C69.3764 9.67251 69.462 10.5964 69.462 10.8604L69.4192 13.8522C69.4192 14.5122 69.0337 15.2161 68.3913 15.7001C67.7917 16.1401 66.7639 16.2281 66.5069 16.2281C66.8495 16.756 69.5905 21.3317 69.5905 21.3317H64.9223L62.3098 16.1841H60.254V21.2877H55.8428ZM65.2196 10.9042H60.2515V13.3241H65.0911C65.2624 13.3241 65.5194 13.2801 65.605 13.1921C65.7335 13.0601 65.7335 12.4001 65.7335 12.1361C65.7335 12.075 65.7342 12.0139 65.7348 11.9534C65.7395 11.5349 65.7439 11.146 65.5194 10.9922C65.4765 10.9482 65.3052 10.9042 65.2196 10.9042Z" fill="#FFF100"/>
</svg>
